<svg width="53" height="50" viewBox="0 0 53 50" fill="none" xmlns="http://www.w3.org/2000/svg">
<g clip-path="url(#clip0)">
<path d="M24.5586 0.602052C20.1082 -0.542463 15.4928 -0.205657 11.1545 2.93474C9.03818 4.46596 7.57234 6.72692 6.29324 9.00659C3.37091 14.2271 -0.874096 21.9019 0.159146 28.0579C0.616635 30.7929 2.11981 33.2254 3.66345 35.5269C8.7643 43.1424 15.2874 50.7081 25.2899 49.9503C30.3441 49.5667 35.1057 47.4554 39.5406 44.9949C45.4133 41.7391 52.1013 36.9552 52.8794 29.7014C53.7881 21.2283 44.8873 13.4973 38.9866 8.71657C34.8941 5.40465 29.8431 1.96175 24.5586 0.602052Z" fill="#032D23"/>
<path d="M25.0125 7.30993C24.4367 7.17271 23.8579 7.0542 23.2697 6.98871C22.6815 6.94194 22.0933 6.90451 21.5082 6.95441C20.9262 7.00431 20.3442 7.07603 19.7871 7.2382C19.5071 7.30369 19.2332 7.4066 18.9593 7.49704C18.6917 7.60931 18.424 7.7091 18.1688 7.8432C17.6491 8.08333 17.1698 8.40143 16.7123 8.72888C16.4914 8.90663 16.2642 9.07192 16.0557 9.26839L15.7413 9.54906C15.648 9.64573 15.5484 9.73617 15.4581 9.83597C14.7236 10.6187 14.1728 11.5668 13.6842 12.5772C13.4383 13.0855 13.2111 13.6032 12.9746 14.1458L12.2526 15.7831L11.5399 17.3923L11.1882 18.1875C11.0762 18.4526 10.9704 18.7208 10.849 18.9796C9.96513 21.0784 9.17152 23.1741 8.88209 25.1824L8.82918 25.5598L8.80429 25.9278L8.77628 26.2989L8.78872 26.6575C8.77316 27.144 8.85719 27.6118 8.95678 28.1139C9.17463 29.1087 9.61345 30.141 10.1363 31.1763C10.6654 32.2179 11.2598 33.2658 11.8791 34.2699C12.514 35.2648 13.1862 36.2378 13.9456 37.1328C14.1292 37.3636 14.3346 37.5725 14.5276 37.7908C14.7236 38.0091 14.9197 38.2274 15.1344 38.4239L15.7662 39.0289C15.9841 39.2222 16.2144 39.4 16.4353 39.5871C17.341 40.3075 18.3089 40.953 19.3608 41.3959C19.4915 41.4551 19.6191 41.5175 19.7467 41.5736L20.1482 41.7108C20.4189 41.795 20.6772 41.9073 20.9542 41.9697L21.7758 42.1537C22.0466 42.2192 22.3298 42.2285 22.6068 42.2628C23.1545 42.3533 23.7178 42.3003 24.2656 42.3096L25.0903 42.2161L25.5011 42.1724L25.915 42.0976C27.0136 41.8917 28.0842 41.5424 29.1299 41.1339C29.6527 40.925 30.1694 40.7004 30.6798 40.4509C31.1933 40.2171 31.7006 39.952 32.2047 39.6869C33.2068 39.138 34.2027 38.558 35.1986 37.9561C36.1852 37.3542 37.1437 36.7336 38.04 36.0631C39.8295 34.7315 41.3981 33.2034 42.3909 31.5318C42.8826 30.6929 43.2343 29.8353 43.4179 28.9466C43.4459 28.722 43.4801 28.4975 43.5206 28.2761C43.5424 28.1638 43.5393 28.0609 43.5517 27.9517C43.5642 27.8457 43.5673 27.7365 43.5642 27.6274C43.5735 27.4122 43.5548 27.1908 43.5424 26.9725C43.5112 26.7511 43.4926 26.5297 43.449 26.3051C43.3027 25.407 42.9511 24.487 42.4998 23.567C42.2695 23.1086 42.0143 22.6502 41.7249 22.198C41.4385 21.7489 41.1398 21.2905 40.8099 20.8476C39.509 19.0638 38.0027 17.2925 36.3968 15.5492C34.7723 13.7965 33.1446 12.0564 31.2742 10.5938C29.4131 9.12493 27.3062 7.92428 25.0125 7.30993ZM25.1214 6.8858C27.4804 7.49704 29.7243 8.47627 31.9028 9.59584C32.9921 10.1572 34.0751 10.7466 35.1395 11.3734C36.2008 12.0096 37.2371 12.6489 38.2672 13.3288C40.3213 14.6947 42.338 16.2259 44.0808 18.1719C44.9522 19.1418 45.7551 20.2146 46.446 21.409C46.7946 22.0015 47.1089 22.6346 47.3735 23.3019C47.6442 23.9662 47.859 24.671 48.0146 25.4007C48.3382 26.8509 48.304 28.4819 47.9897 29.9258C47.6598 31.3946 47.0467 32.7761 46.25 33.9674C45.4626 35.1681 44.5134 36.191 43.5175 37.0922C42.5154 37.9904 41.4541 38.7638 40.3742 39.4592C39.2911 40.1547 38.1894 40.7753 37.0784 41.3397C35.9736 41.9042 34.8345 42.4281 33.6519 42.8772C31.2991 43.7909 28.7502 44.4115 26.164 44.4708L25.6816 44.4801L25.1899 44.4583L24.2158 44.4084L23.251 44.265C23.0923 44.24 22.9304 44.2275 22.7717 44.187L22.2987 44.0716C21.0351 43.7972 19.8401 43.2982 18.7228 42.7088C16.4789 41.5206 14.6147 39.8397 12.9092 38.0684C12.7007 37.8407 12.4891 37.6193 12.2744 37.3979C12.0627 37.1733 11.8667 36.9394 11.6581 36.7118C11.2349 36.2627 10.8552 35.7856 10.4444 35.324C9.65702 34.3791 8.87898 33.4498 8.11027 32.4674C7.34779 31.4757 6.59775 30.3936 6.04067 29.1087C5.7668 28.4694 5.5365 27.7677 5.42135 27.0536L5.3311 26.5172L5.28753 25.987L5.25018 25.4538L5.25952 24.9298C5.28753 23.5296 5.54895 22.198 5.92241 20.9412C6.29587 19.6813 6.79071 18.4931 7.34468 17.358C7.62477 16.7935 7.92665 16.2415 8.22853 15.6989C8.54598 15.1625 8.86342 14.6323 9.19642 14.1146C9.53253 13.6001 9.86865 13.0918 10.2172 12.5959C10.5658 12.0876 10.9455 11.5668 11.3532 11.0647C12.1685 10.0605 13.1209 9.09375 14.2537 8.35465C14.3906 8.26109 14.54 8.17689 14.6832 8.08957L15.1127 7.86191C15.3928 7.70598 15.6946 7.58124 15.9841 7.44714C16.5754 7.19454 17.1729 6.97312 17.7891 6.81096C19.0122 6.47415 20.2664 6.34005 21.4957 6.36812C22.7282 6.39619 23.9419 6.58642 25.1214 6.8858Z" fill="#AAA713"/>
<path d="M29.7275 32.5547C27.3436 31.7563 26.5282 29.1274 24.1007 28.5692C23.2013 28.3633 22.1401 28.4974 21.2126 28.6939C19.8495 28.9808 18.8723 29.1617 17.4687 29.0681C19.1991 30.2064 19.4916 32.1119 21.6483 32.7668C22.5664 33.0443 23.4036 33.3842 24.2688 33.8052C25.3176 34.3167 26.0272 34.0329 27.0573 33.6618C27.9194 33.3499 28.8904 33.0506 29.7275 32.5547Z" fill="#4EB49C"/>
<path d="M29.8334 30.4902C26.8395 30.7178 26.9484 25.8466 25.7222 24.2312C24.6516 22.8216 23.0333 22.5347 21.6515 21.5181C20.5933 20.7353 20.1296 19.8777 19.862 18.6147C19.7344 18.0066 19.7562 17.2456 19.4387 16.8683C21.6266 18.8548 25.4452 17.8194 27.0324 20.7384C27.8042 22.1574 28.1372 23.1397 29.4879 24.0691C30.795 24.9672 31.0004 25.6595 30.7359 27.2032C30.5492 28.3072 30.3998 29.5234 29.8334 30.4902Z" fill="#4EB49C"/>
<path d="M31.5823 32.8759C30.0854 31.8281 32.211 29.6357 32.7432 28.697C33.0295 28.1949 33.3407 27.5338 33.4434 26.9569C33.5461 26.3768 33.322 25.9402 33.2349 25.3913C32.9486 23.5919 34.2432 22.3102 35.0057 20.8507C35.8118 22.9589 37.0318 24.7676 36.6583 27.1471C36.3409 29.1679 35.0057 30.8301 33.3376 31.9029C32.8241 32.2366 32.1581 32.7262 31.5823 32.8759Z" fill="#4EB49C"/>
</g>
<defs>
<clipPath id="clip0">
<rect width="52.9412" height="50" fill="white"/>
</clipPath>
</defs>
</svg>
